<svg id="Layer_3" enable-background="new 0 0 64 64" height="512" viewBox="0 0 64 64" width="512" xmlns="http://www.w3.org/2000/svg"><g><path d="m58 48h-52c-2.209 0-4-1.791-4-4v-38c0-2.209 1.791-4 4-4h52c2.209 0 4 1.791 4 4v38c0 2.209-1.791 4-4 4z" fill="#8892a0"/><path d="m2 6v32h60v-32c0-2.209-1.791-4-4-4h-52c-2.209 0-4 1.791-4 4z" fill="#a1cdfb"/><path d="m2 6v27.303c3.93 1.095 8.13 1.697 12.5 1.697 21.815 0 39.5-14.775 39.5-33h-48c-2.209 0-4 1.791-4 4z" fill="#c7e2fc"/><path d="m38 10h20v24h-20z" fill="#bfbfbf"/><path d="m42 14h12v8h-12z" fill="#fff"/><g><path d="m41 25h14v2h-14z" fill="#fff"/></g><g><path d="m41 29h14v2h-14z" fill="#fff"/></g><path d="m10 10h20v24h-20z" fill="#bfbfbf"/><path d="m14 14h12v8h-12z" fill="#fff"/><path d="m47 62h-30v-3c0-1.657 1.343-3 3-3h24c1.657 0 3 1.343 3 3z" fill="#8892a0"/><path d="m23 48h18v8h-18z" fill="#a0a8b3"/><circle cx="12" cy="12" fill="#78b75b" r="6"/><g><path d="m11 15c-.256 0-.512-.098-.707-.293l-2-2 1.414-1.414 1.293 1.293 3.293-3.293 1.414 1.414-4 4c-.195.195-.451.293-.707.293z" fill="#fff"/></g><circle cx="40" cy="12" fill="#e0747c" r="6"/><g><path d="m37.172 11h5.657v2h-5.657z" fill="#fff" transform="matrix(.707 -.707 .707 .707 3.23 31.799)"/></g><g><path d="m39 9.172h2v5.657h-2z" fill="#fff" transform="matrix(.707 -.707 .707 .707 3.23 31.799)"/></g><g><path d="m13 25h14v2h-14z" fill="#fff"/></g><g><path d="m13 29h14v2h-14z" fill="#fff"/></g><g><path d="m57 43h2v2h-2z" fill="#fff"/></g><g><path d="m53 43h2v2h-2z" fill="#fff"/></g></g></svg>