<svg id="Layer_1" enable-background="new 0 0 512 512" height="512" viewBox="0 0 512 512" width="512" xmlns="http://www.w3.org/2000/svg"><g><g><path clip-rule="evenodd" d="m205.988 316.307c-71.913 7.965-120.696 12.217-136.825 100.715l-13.974 76.734c-1.531 8.447 1.616 10.743 10.545 10.743h380.542c8.901 0 12.075-2.296 10.545-10.743l-14.003-76.734c-16.1-88.498-64.912-92.75-136.797-100.715z" fill="#ccf49f" fill-rule="evenodd"/></g><g><path clip-rule="evenodd" d="m205.988 316.307v10.035c0 27.496 22.507 50.003 50.002 50.003 27.524 0 50.03-22.507 50.03-50.003v-10.035-33.024c-6.52 3.855-13.294 7.143-20.239 9.723-21.458 7.965-38.125 7.965-59.554 0-6.973-2.58-13.748-5.868-20.239-9.723z" fill="#ffddce" fill-rule="evenodd"/></g><g><path clip-rule="evenodd" d="m141.671 108.045 99.777 7.682-7.71-95.981c-41.554 7.682-79.339 37.105-92.067 88.299z" fill="#c38959" fill-rule="evenodd"/></g><g><path clip-rule="evenodd" d="m268.009 118.278 102.3-10.233c-12.727-51.194-50.512-80.618-92.039-88.299z" fill="#c38959" fill-rule="evenodd"/></g><g><path clip-rule="evenodd" d="m390.462 205.359h15.959c8.787 0 15.959-7.172 15.959-15.959v-44.532c0-8.787-7.171-15.959-15.959-15.959h-15.959z" fill="#c6d0da" fill-rule="evenodd"/></g><g><path clip-rule="evenodd" d="m89.6 189.4c0 8.787 7.171 15.959 15.959 15.959h15.959v-76.451h-15.959c-8.787 0-15.959 7.172-15.959 15.959z" fill="#c6d0da" fill-rule="evenodd"/></g><g><path clip-rule="evenodd" d="m145.045 226.222c11.31 26.759 33.788 52.98 60.943 69.137 6.491 3.883 13.266 7.172 20.239 9.751 21.429 7.937 38.097 7.937 59.554 0 6.945-2.58 13.719-5.868 20.239-9.751 27.127-16.158 49.605-42.378 60.943-69.137-76.023-15.194-149.92-14.797-221.918 0z" fill="#ffece4" fill-rule="evenodd"/></g><g><path clip-rule="evenodd" d="m233.739 19.746v88.299h44.531v-88.299-8.107c0-2.268-1.871-4.139-4.167-4.139h-36.226c-2.268 0-4.138 1.871-4.138 4.139z" fill="#808b95" fill-rule="evenodd"/></g><g><path clip-rule="evenodd" d="m121.518 208.505c0 9.751 7.994 17.717 17.744 17.717h5.783 221.919 5.754c9.779 0 17.744-7.965 17.744-17.717v-3.146-76.451-3.146c0-9.751-7.965-17.717-17.744-17.717h-2.409-92.039-44.531-92.067-2.409c-9.751 0-17.744 7.965-17.744 17.717v3.146 76.451 3.146z" fill="#f6f9f9" fill-rule="evenodd"/></g><g><path clip-rule="evenodd" d="m342.473 108.045c9.751 0 17.716 7.965 17.716 17.717v3.146 76.451 3.146c0 9.723-7.908 17.66-17.631 17.717h24.406 5.754c9.779 0 17.744-7.965 17.744-17.717v-3.146-76.451-3.146c0-9.751-7.965-17.717-17.744-17.717h-2.409z" fill="#e7ecf1" fill-rule="evenodd"/></g><g><path clip-rule="evenodd" d="m259.051 19.746v88.299h10.006 9.212v-69.591-18.708-8.107c0-2.268-1.871-4.139-4.167-4.139h-19.218c2.296 0 4.167 1.871 4.167 4.139z" fill="#566b74" fill-rule="evenodd"/></g><g><path clip-rule="evenodd" d="m150.062 84.206c-3.43 7.342-6.264 15.279-8.39 23.839h92.067v-23.839z" fill="#b17a4a" fill-rule="evenodd"/></g><g><path clip-rule="evenodd" d="m278.27 84.206v23.839h64.203 27.836c-2.126-8.561-4.961-16.498-8.362-23.839z" fill="#b17a4a" fill-rule="evenodd"/></g><g><path clip-rule="evenodd" d="m205.988 295.359v20.948 5.017c32.229 21.317 67.605 12.047 78.971 6.633 2.806-1.332 2.693-.113 2.778 2.948.113 3.118.057 5.641.057 9.496v10.035c0 5.839-1.02 11.424-2.863 16.639 12.727-9.099 21.089-23.981 21.089-40.734v-10.035-20.948c-6.52 3.883-13.294 7.172-20.239 9.751-21.458 7.937-38.125 7.937-59.554 0-6.973-2.578-13.748-5.866-20.239-9.75z" fill="#ffcbbe" fill-rule="evenodd"/></g><g><path clip-rule="evenodd" d="m233.739 84.206v23.839h7.086 18.226v-23.839h-20.154z" fill="#566b74" fill-rule="evenodd"/></g><g><path clip-rule="evenodd" d="m334.593 226.222c-15.732 29.084-43.879 55.956-75.825 67.805-4.762 1.758-9.269 3.118-13.663 4.11-12.217 2.721-23.442 2.438-35.886-.907 5.499 3.061 11.197 5.726 17.007 7.88 21.429 7.937 38.097 7.937 59.554 0 6.945-2.58 13.719-5.868 20.239-9.751 27.127-16.158 49.605-42.378 60.943-69.137h-24.406z" fill="#ffddce" fill-rule="evenodd"/></g><g><path clip-rule="evenodd" d="m422.606 504.5h23.669c8.901 0 12.075-2.296 10.545-10.743l-14.003-76.734c-16.1-88.498-64.912-92.75-136.797-100.715v10.035c0 8.05-1.928 15.676-5.357 22.422 67.491 8.561 96.404 15.421 108.621 82.573z" fill="#b3e59f" fill-rule="evenodd"/></g><g><path d="m342.574 144.612c0-4.142-3.358-7.5-7.5-7.5h-158.141c-4.142 0-7.5 3.358-7.5 7.5s3.358 7.5 7.5 7.5h158.141c4.143 0 7.5-3.358 7.5-7.5z"/><path d="m255.97 272.797h.024c8.536 0 16.568-3.332 22.619-9.382 2.929-2.929 2.929-7.678 0-10.606-2.929-2.929-7.678-2.929-10.606 0-3.218 3.218-7.483 4.989-12.012 4.989-.004 0-.009 0-.013 0-4.52-.003-8.771-1.772-11.971-4.981-2.924-2.934-7.673-2.94-10.606-.016s-2.94 7.673-.016 10.606c6.03 6.05 14.05 9.385 22.581 9.39z"/><path d="m464.198 492.411-14.001-76.73c-7.773-42.724-23.719-69.791-50.184-85.18-23.209-13.496-52.571-17.143-86.492-20.909v-10.054c24.612-15.652 45.942-39.434 58.296-65.815h.901c12.433 0 22.788-9.027 24.86-20.863h8.843c12.935 0 23.458-10.523 23.458-23.459v-44.533c0-12.936-10.523-23.459-23.458-23.459h-8.849c-1.881-10.74-10.581-19.164-21.469-20.629-13.019-44.76-46.224-76.754-90.334-87.103v-2.037c.001-6.419-5.233-11.64-11.666-11.64h-36.226c-6.417 0-11.639 5.221-11.639 11.639v2.036c-44.126 10.346-77.342 42.341-90.362 87.104-10.889 1.465-19.588 9.889-21.47 20.63h-8.848c-12.935 0-23.458 10.523-23.458 23.459v44.532c0 12.936 10.523 23.459 23.458 23.459h8.843c2.072 11.836 12.427 20.863 24.86 20.863h.926c12.334 26.378 33.665 50.162 58.3 65.819v10.05c-33.927 3.766-63.293 7.412-86.502 20.906-26.463 15.386-42.415 42.453-50.202 85.181l-13.975 76.742c-.714 3.941-1.223 9.709 2.589 14.274 3.928 4.703 10.26 5.306 15.336 5.306h173.391c4.142 0 7.5-3.358 7.5-7.5s-3.358-7.5-7.5-7.5h-83.037v-43.949c0-4.142-3.358-7.5-7.5-7.5s-7.5 3.358-7.5 7.5v43.949h-76.354c-1.553-.104-2.298-1.171-2.167-1.899l13.975-76.733c14.521-79.677 55.058-86.233 121.947-93.683v1.658c0 31.708 25.795 57.503 57.502 57.503 31.722 0 57.53-25.796 57.53-57.503v-1.657c66.888 7.452 107.423 14.006 121.919 93.684l14 76.726c.133.731.488 1.906-1.148 1.906 0 0-38.191 0-77.371 0v-43.949c0-4.142-3.358-7.5-7.5-7.5s-7.5 3.358-7.5 7.5v43.947c-41.492 0-81.624 0-81.626 0-4.134 0-7.491 3.347-7.5 7.484-.009 4.142 3.342 7.507 7.484 7.516h171.996c5.072 0 11.398-.604 15.33-5.311 4.258-5.098 3.007-12.001 2.594-14.278zm-66.236-356.003h8.459c4.664 0 8.458 3.795 8.458 8.459v44.533c0 4.664-3.794 8.459-8.458 8.459h-8.459zm-283.945 61.451h-8.458c-4.664 0-8.458-3.795-8.458-8.459v-44.533c0-4.664 3.794-8.459 8.458-8.459h8.458zm171.753-168.721c35.557 9.541 62.602 35.455 74.548 71.408h-74.548zm-44.531-14.138h29.531v85.545h-29.531zm-15 14.136v71.41h-74.576c11.947-35.957 39.003-61.872 74.576-71.41zm-69.251 204.586h81.144c4.142 0 7.5-3.358 7.5-7.5s-3.358-7.5-7.5-7.5h-98.87c-5.649 0-10.245-4.583-10.245-10.217v-82.744c0-5.633 4.596-10.216 10.245-10.216h139.008 94.448c5.648 0 10.244 4.583 10.244 10.216v82.744c0 5.634-4.596 10.217-10.244 10.217h-99.976c-4.142 0-7.5 3.358-7.5 7.5s3.358 7.5 7.5 7.5h82.27c-15.511 28.624-43.202 53.727-71.833 64.354-19.823 7.332-34.554 7.333-54.343.003-28.667-10.641-56.361-35.744-71.848-64.357zm141.532 92.62c0 23.437-19.079 42.503-42.53 42.503-23.436 0-42.502-19.067-42.502-42.503v-18.49c3.346 1.589 6.727 3.027 10.134 4.292 11.493 4.256 21.928 6.385 32.37 6.385s20.889-2.129 32.4-6.387c3.405-1.264 6.784-2.702 10.129-4.291v18.491z"/></g></g></svg>