<svg id="Capa_1" enable-background="new 0 0 512.197 512.197" height="512" viewBox="0 0 512.197 512.197" width="512" xmlns="http://www.w3.org/2000/svg"><g><path d="m0 256.049s114.659-216.098 256.098-216.098 256.098 216.098 256.098 216.098c0 28.638-4.701 56.178-13.372 81.891l-179.622 166.375c-20.186 5.115-41.327 7.833-63.103 7.833-141.44 0-256.099-114.66-256.099-256.099z" fill="#9ee2f8"/><path d="m286.354 39.954-30.256 216.102v256.09c21.686-.021 42.997-2.736 63.103-7.831l179.623-166.375c8.672-25.713 13.372-53.253 13.372-81.891.001 0-84.52-215.835-225.842-216.095z" fill="#5ecef4"/><g><path d="m124.346 389.247 28.896 19.986c6.282 4.346 13.676 6.61 21.168 6.61 3.058 0 6.134-.378 9.157-1.145 10.426-2.646 19.192-9.668 24.049-19.265l19.816-39.15c4.778-9.441 5.308-20.51 1.451-30.365-3.857-9.856-11.759-17.626-21.678-21.318l-52.14-19.402c-1.052-.391-1.888-1.216-2.295-2.261l-21.827-56.079c-.623-1.6-.116-2.869.419-3.65.535-.782 1.534-1.715 3.251-1.715h52.892c2.205 0 4.371-.441 6.374-1.269l39.232-15.693c4.81-1.923 9.089-4.773 12.723-8.473l54.15-55.159c6.822-6.949 10.644-16.298 10.644-26.036l-54.53-114.814c-141.385 0-256 114.615-256 256 0 50.459 14.607 97.504 39.812 137.15l81.965-4.646c.857-.051 1.751.196 2.471.694z" fill="#00dd80"/></g><g><path d="m256.098.049c141.151 0 255.576 114.849 255.576 256l-255.576.006z" fill="#edf5ff"/></g><path d="m292.392 163.298h63.109l19.967 40.567-19.444 52.185h-78.086l-.523-77.774c0-8.273 6.705-14.978 14.977-14.978z" fill="#ffe666"/><path d="m370.478 113.381h63.109l19.967 67.17-19.444 75.498h-78.086l-.523-127.692c0-8.271 6.706-14.976 14.977-14.976z" fill="#e62e6b"/><path d="m448.59 63.463 48.605-.277c8.285 0 15.002 6.717 15.002 15.002v177.86h-78.087l-.523-177.584c.001-8.284 6.717-15.001 15.003-15.001z" fill="#ff9100"/><path d="m498.821 337.939-43.921-24.803c-14.103-7.911-31.345-8.72-46.125-2.163l-59.476 26.386c-4.986 2.213-10.545 2.371-15.651.443-15.364-5.801-32.11-4.059-45.95 4.781-13.84 8.839-22.464 23.301-23.663 39.677l-.973 13.291c-.799 10.917 1.978 22.026 7.821 31.281l48.317 77.471c84.376-21.38 152.059-84.637 179.621-166.364z" fill="#00aa95"/></g></svg>