<svg height="512pt" viewBox="-54 0 512 512" width="512pt" xmlns="http://www.w3.org/2000/svg"><path d="m403.335938 91.664062v-64h-80v-27.664062h-30v27.667969h-76.667969v-27.667969h-30v27.667969h-76.667969v-27.667969h-30v27.667969h-80v64h403.335938zm0 0"/><path d="m0 121.664062v390.335938h403.332031v-390.335938zm250.941406 74.0625 14.726563 14.726563 32.058593-32.058594 21.214844 21.210938-53.273437 53.273437-35.941407-35.9375zm-27.941406 109.273438h96v30h-96zm0 57h96v30h-96zm0 57h96v30h-96zm-133.273438-227.0625 21.214844-21.210938 21.394532 21.394532 21.394531-21.394532 21.210937 21.210938-21.394531 21.394531 21.394531 21.394531-21.210937 21.214844-21.394531-21.394531-21.394532 21.394531-21.214844-21.214844 21.394532-21.394531zm-5.390624 113.0625h96v30h-96zm0 57h96v30h-96zm0 57h96v30h-96zm0 0"/></svg>